<?xml version="1.0" encoding="UTF-8"?>
<svg xmlns="http://www.w3.org/2000/svg" xmlns:xlink="http://www.w3.org/1999/xlink" width="500px" height="128px" viewBox="0 0 501 128" version="1.1">
<defs>
<clipPath id="clip1">
  <path d="M 0.0507812 17.761719 L 387.917969 17.761719 L 387.917969 76.164062 L 0.0507812 76.164062 Z M 0.0507812 17.761719 "/>
</clipPath>
<clipPath id="clip2">
  <path d="M 160.199219 89.953125 L 387.917969 89.953125 L 387.917969 110.75 L 160.199219 110.75 Z M 160.199219 89.953125 "/>
</clipPath>
<clipPath id="clip3">
  <path d="M 401.679688 0.253906 L 500.34375 0.253906 L 500.34375 128 L 401.679688 128 Z M 401.679688 0.253906 "/>
</clipPath>
</defs>
<g id="surface1">
<g clip-path="url(#clip1)" clip-rule="nonzero">
<path style=" stroke:none;fill-rule:nonzero;fill:rgb(100%,100%,100%);fill-opacity:1;" d="M 24.007812 75.042969 L 16.398438 75.042969 L 16.398438 25.785156 L 0.0664062 25.785156 L 0.0664062 18.882812 L 40.339844 18.882812 L 40.339844 25.785156 L 24.007812 25.785156 Z M 70.449219 76.164062 C 65.109375 76.164062 60.359375 74.964844 56.195312 72.570312 C 52.03125 70.175781 48.761719 66.792969 46.378906 62.429688 C 44.007812 58.054688 42.824219 52.898438 42.824219 46.960938 C 42.824219 41.027344 44.007812 35.871094 46.378906 31.496094 C 48.761719 27.121094 52.03125 23.742188 56.195312 21.355469 C 60.359375 18.957031 65.109375 17.761719 70.449219 17.761719 C 75.785156 17.761719 80.539062 18.957031 84.703125 21.355469 C 88.863281 23.742188 92.132812 27.121094 94.503906 31.496094 C 96.882812 35.871094 98.074219 41.027344 98.074219 46.960938 C 98.074219 52.898438 96.882812 58.054688 94.503906 62.429688 C 92.132812 66.792969 88.863281 70.175781 84.703125 72.570312 C 80.539062 74.964844 75.785156 76.164062 70.449219 76.164062 Z M 70.449219 68.785156 C 74.742188 68.785156 78.328125 67.816406 81.210938 65.878906 C 84.09375 63.933594 86.261719 61.3125 87.710938 58.019531 C 89.175781 54.710938 89.90625 51.027344 89.90625 46.960938 C 89.90625 42.898438 89.175781 39.214844 87.710938 35.90625 C 86.261719 32.601562 84.09375 29.980469 81.210938 28.046875 C 78.328125 26.109375 74.742188 25.140625 70.449219 25.140625 C 66.144531 25.140625 62.554688 26.109375 59.671875 28.046875 C 56.789062 29.980469 54.621094 32.601562 53.167969 35.90625 C 51.71875 39.214844 50.992188 42.898438 50.992188 46.960938 C 50.992188 51.027344 51.71875 54.710938 53.167969 58.019531 C 54.621094 61.3125 56.789062 63.933594 59.671875 65.878906 C 62.554688 67.816406 66.144531 68.785156 70.449219 68.785156 Z M 128.421875 75.042969 L 107.683594 75.042969 L 107.683594 18.882812 L 128.421875 18.882812 C 133.832031 18.882812 138.636719 19.992188 142.832031 22.207031 C 147.019531 24.429688 150.308594 27.632812 152.699219 31.816406 C 155.089844 36 156.285156 41.046875 156.285156 46.960938 C 156.285156 52.867188 155.089844 57.917969 152.699219 62.109375 C 150.308594 66.292969 147.019531 69.488281 142.832031 71.703125 C 138.636719 73.929688 133.832031 75.042969 128.421875 75.042969 Z M 115.289062 25.785156 L 115.289062 68.140625 L 128.421875 68.140625 C 132.691406 68.140625 136.273438 67.253906 139.167969 65.480469 C 142.058594 63.691406 144.25 61.210938 145.730469 58.035156 C 147.214844 54.847656 147.957031 51.15625 147.957031 46.960938 C 147.957031 42.757812 147.214844 39.070312 145.730469 35.890625 C 144.25 32.703125 142.058594 30.222656 139.167969 28.445312 C 136.273438 26.671875 132.691406 25.785156 128.421875 25.785156 Z M 190.300781 76.164062 C 184.960938 76.164062 180.210938 74.964844 176.046875 72.570312 C 171.882812 70.175781 168.617188 66.792969 166.246094 62.429688 C 163.867188 58.054688 162.675781 52.898438 162.675781 46.960938 C 162.675781 41.027344 163.867188 35.871094 166.246094 31.496094 C 168.617188 27.121094 171.882812 23.742188 176.046875 21.355469 C 180.210938 18.957031 184.960938 17.761719 190.300781 17.761719 C 195.636719 17.761719 200.390625 18.957031 204.554688 21.355469 C 208.714844 23.742188 211.988281 27.121094 214.371094 31.496094 C 216.738281 35.871094 217.925781 41.027344 217.925781 46.960938 C 217.925781 52.898438 216.738281 58.054688 214.371094 62.429688 C 211.988281 66.792969 208.714844 70.175781 204.554688 72.570312 C 200.390625 74.964844 195.636719 76.164062 190.300781 76.164062 Z M 190.300781 68.785156 C 194.601562 68.785156 198.195312 67.816406 201.078125 65.878906 C 203.960938 63.933594 206.128906 61.3125 207.578125 58.019531 C 209.03125 54.710938 209.757812 51.027344 209.757812 46.960938 C 209.757812 42.898438 209.03125 39.214844 207.578125 35.90625 C 206.128906 32.601562 203.960938 29.980469 201.078125 28.046875 C 198.195312 26.109375 194.601562 25.140625 190.300781 25.140625 C 186.007812 25.140625 182.421875 26.109375 179.539062 28.046875 C 176.65625 29.980469 174.488281 32.601562 173.035156 35.90625 C 171.574219 39.214844 170.84375 42.898438 170.84375 46.960938 C 170.84375 51.027344 171.574219 54.710938 173.035156 58.019531 C 174.488281 61.3125 176.65625 63.933594 179.539062 65.878906 C 182.421875 67.816406 186.007812 68.785156 190.300781 68.785156 Z M 278.859375 75.042969 L 245.550781 75.042969 L 245.550781 18.882812 L 253.15625 18.882812 L 253.15625 68.140625 L 278.859375 68.140625 Z M 293.273438 75.042969 L 285.664062 75.042969 L 285.664062 18.882812 L 293.273438 18.882812 Z M 322.082031 76.164062 C 319.765625 76.164062 317.445312 75.992188 315.117188 75.652344 C 312.800781 75.296875 310.652344 74.847656 308.679688 74.304688 C 306.703125 73.746094 305.058594 73.164062 303.746094 72.554688 L 304.785156 64.453125 C 306.226562 65.148438 307.972656 65.871094 310.023438 66.617188 C 312.0625 67.367188 314.265625 67.992188 316.636719 68.496094 C 319.019531 69.007812 321.421875 69.265625 323.84375 69.265625 C 327.453125 69.265625 330.320312 68.601562 332.445312 67.277344 C 334.558594 65.949219 335.613281 63.886719 335.613281 61.082031 C 335.613281 58.964844 335.082031 57.230469 334.011719 55.882812 C 332.945312 54.535156 331.339844 53.378906 329.191406 52.417969 C 327.046875 51.457031 324.355469 50.492188 321.121094 49.53125 C 318.058594 48.621094 315.226562 47.546875 312.632812 46.304688 C 310.050781 45.0625 307.980469 43.390625 306.421875 41.28125 C 304.851562 39.1875 304.066406 36.398438 304.066406 32.921875 C 304.066406 29.949219 304.835938 27.324219 306.371094 25.046875 C 307.910156 22.757812 310.167969 20.96875 313.144531 19.6875 C 316.113281 18.402344 319.761719 17.761719 324.085938 17.761719 C 327.765625 17.761719 331.152344 18.160156 334.238281 18.964844 C 337.324219 19.765625 339.863281 20.648438 341.859375 21.613281 L 341.058594 29.714844 C 338.015625 27.894531 335.117188 26.597656 332.363281 25.816406 C 329.597656 25.046875 326.730469 24.660156 323.765625 24.660156 C 320.484375 24.660156 317.773438 25.273438 315.628906 26.503906 C 313.472656 27.734375 312.394531 29.742188 312.394531 32.523438 C 312.394531 34.394531 312.875 35.921875 313.835938 37.109375 C 314.796875 38.296875 316.226562 39.316406 318.125 40.160156 C 320.015625 41.003906 322.375 41.855469 325.203125 42.710938 C 329.101562 43.886719 332.453125 45.230469 335.261719 46.738281 C 338.058594 48.246094 340.207031 50.109375 341.699219 52.320312 C 343.195312 54.523438 343.941406 57.257812 343.941406 60.519531 C 343.941406 62.925781 343.488281 65.09375 342.582031 67.019531 C 341.671875 68.945312 340.3125 70.585938 338.496094 71.945312 C 336.683594 73.3125 334.40625 74.363281 331.675781 75.089844 C 328.941406 75.804688 325.746094 76.164062 322.082031 76.164062 Z M 371.566406 75.042969 L 363.960938 75.042969 L 363.960938 25.785156 L 347.625 25.785156 L 347.625 18.882812 L 387.902344 18.882812 L 387.902344 25.785156 L 371.566406 25.785156 Z M 371.566406 75.042969 "/>
</g>
<g clip-path="url(#clip2)" clip-rule="nonzero">
<path style=" stroke:none;fill-rule:nonzero;fill:rgb(100%,100%,100%);fill-opacity:1;" d="M 166.238281 110.746094 C 165.164062 110.746094 164.164062 110.628906 163.242188 110.398438 C 162.320312 110.160156 161.582031 109.875 161.027344 109.542969 C 160.476562 109.210938 160.199219 108.90625 160.199219 108.628906 C 160.199219 108.476562 160.261719 108.273438 160.386719 108.023438 C 160.511719 107.769531 160.660156 107.546875 160.824219 107.347656 C 160.992188 107.152344 161.121094 107.054688 161.222656 107.054688 C 161.304688 107.054688 161.496094 107.140625 161.792969 107.316406 C 162.46875 107.664062 163.140625 107.957031 163.808594 108.191406 C 164.472656 108.417969 165.285156 108.535156 166.238281 108.535156 C 166.980469 108.535156 167.640625 108.390625 168.21875 108.101562 C 168.796875 107.820312 169.246094 107.417969 169.570312 106.898438 C 169.890625 106.378906 170.050781 105.777344 170.050781 105.101562 C 170.050781 104.375 169.859375 103.773438 169.476562 103.296875 C 169.085938 102.824219 168.617188 102.445312 168.066406 102.167969 C 167.507812 101.890625 166.707031 101.542969 165.660156 101.125 C 164.523438 100.683594 163.625 100.277344 162.96875 99.898438 C 162.304688 99.523438 161.742188 98.972656 161.273438 98.25 C 160.808594 97.523438 160.578125 96.566406 160.578125 95.371094 C 160.578125 94.332031 160.84375 93.398438 161.382812 92.570312 C 161.917969 91.746094 162.679688 91.101562 163.660156 90.640625 C 164.644531 90.183594 165.777344 89.953125 167.058594 89.953125 C 167.636719 89.953125 168.296875 90.03125 169.039062 90.191406 C 169.78125 90.347656 170.417969 90.5625 170.945312 90.835938 C 171.480469 91.109375 171.746094 91.414062 171.746094 91.746094 C 171.746094 91.882812 171.6875 92.078125 171.570312 92.324219 C 171.457031 92.570312 171.324219 92.792969 171.167969 92.988281 C 171.015625 93.1875 170.898438 93.285156 170.8125 93.285156 C 170.714844 93.285156 170.515625 93.203125 170.21875 93.042969 C 169.726562 92.777344 169.242188 92.566406 168.761719 92.410156 C 168.28125 92.25 167.691406 92.167969 167.003906 92.167969 C 165.878906 92.167969 164.972656 92.460938 164.277344 93.042969 C 163.582031 93.621094 163.234375 94.429688 163.234375 95.472656 C 163.234375 96.097656 163.386719 96.609375 163.691406 97.011719 C 164 97.421875 164.390625 97.746094 164.855469 97.980469 C 165.324219 98.222656 165.980469 98.503906 166.820312 98.824219 C 166.878906 98.832031 167.007812 98.875 167.203125 98.953125 C 168.359375 99.40625 169.308594 99.839844 170.046875 100.261719 C 170.785156 100.683594 171.414062 101.289062 171.933594 102.074219 C 172.453125 102.863281 172.710938 103.871094 172.710938 105.101562 C 172.710938 106.25 172.449219 107.25 171.917969 108.101562 C 171.386719 108.960938 170.632812 109.613281 169.65625 110.066406 C 168.675781 110.519531 167.535156 110.746094 166.238281 110.746094 Z M 181.632812 110.632812 C 181.222656 110.632812 180.929688 110.582031 180.746094 110.476562 C 180.558594 110.375 180.460938 110.214844 180.460938 109.992188 L 180.460938 92.363281 L 174.855469 92.363281 C 174.648438 92.363281 174.503906 92.292969 174.417969 92.15625 C 174.328125 92.011719 174.285156 91.792969 174.285156 91.496094 L 174.285156 91.019531 C 174.285156 90.710938 174.328125 90.492188 174.417969 90.351562 C 174.503906 90.21875 174.648438 90.148438 174.855469 90.148438 L 188.535156 90.148438 C 188.742188 90.148438 188.890625 90.21875 188.980469 90.351562 C 189.0625 90.492188 189.105469 90.710938 189.105469 91.019531 L 189.105469 91.496094 C 189.105469 91.792969 189.0625 92.011719 188.980469 92.15625 C 188.890625 92.292969 188.742188 92.363281 188.535156 92.363281 L 183.042969 92.363281 L 183.042969 109.992188 C 183.042969 110.417969 182.648438 110.632812 181.859375 110.632812 Z M 190.121094 110.632812 C 189.6875 110.632812 189.371094 110.59375 189.171875 110.511719 C 188.976562 110.429688 188.878906 110.308594 188.878906 110.140625 C 188.878906 110.066406 188.90625 109.933594 188.957031 109.746094 L 195.863281 90.539062 C 195.96875 90.226562 196.359375 90.070312 197.023438 90.070312 L 197.878906 90.070312 C 198.542969 90.070312 198.933594 90.226562 199.039062 90.539062 L 205.945312 109.765625 C 205.996094 109.886719 206.023438 110.011719 206.023438 110.140625 C 206.023438 110.46875 205.613281 110.632812 204.796875 110.632812 L 204.554688 110.632812 C 203.871094 110.632812 203.480469 110.480469 203.371094 110.175781 L 201.664062 105.378906 L 193.109375 105.378906 L 191.4375 110.175781 C 191.339844 110.480469 190.949219 110.632812 190.269531 110.632812 Z M 193.910156 103.15625 L 200.878906 103.15625 L 197.832031 94.46875 C 197.742188 94.226562 197.667969 93.953125 197.617188 93.648438 C 197.5625 93.34375 197.511719 93.046875 197.46875 92.761719 L 197.402344 92.761719 C 197.269531 93.496094 197.125 94.066406 196.957031 94.46875 Z M 214.40625 110.632812 C 213.625 110.632812 213.238281 110.417969 213.238281 109.992188 L 213.238281 100.101562 L 207.140625 91.097656 C 206.988281 90.890625 206.910156 90.71875 206.910156 90.574219 C 206.910156 90.238281 207.359375 90.070312 208.253906 90.070312 L 208.570312 90.070312 C 208.898438 90.070312 209.160156 90.101562 209.363281 90.164062 C 209.5625 90.230469 209.71875 90.347656 209.832031 90.511719 L 214.613281 97.6875 L 219.503906 90.492188 C 219.679688 90.210938 220.113281 90.070312 220.8125 90.070312 L 221.015625 90.070312 C 221.417969 90.089844 221.707031 90.144531 221.886719 90.222656 C 222.066406 90.304688 222.15625 90.421875 222.15625 90.574219 C 222.15625 90.671875 222.074219 90.847656 221.914062 91.097656 L 215.816406 100.1875 L 215.816406 109.992188 C 215.816406 110.417969 215.421875 110.632812 214.632812 110.632812 Z M 240.324219 110.746094 C 237.402344 110.746094 235.179688 109.859375 233.648438 108.089844 C 232.121094 106.3125 231.359375 103.71875 231.359375 100.304688 C 231.359375 96.894531 232.117188 94.316406 233.640625 92.570312 C 235.167969 90.828125 237.394531 89.953125 240.324219 89.953125 C 243.265625 89.953125 245.5 90.828125 247.03125 92.570312 C 248.558594 94.316406 249.324219 96.894531 249.324219 100.304688 C 249.324219 103.71875 248.558594 106.3125 247.03125 108.089844 C 245.5 109.859375 243.265625 110.746094 240.324219 110.746094 Z M 240.324219 108.535156 C 242.378906 108.535156 243.953125 107.828125 245.046875 106.421875 C 246.136719 105.011719 246.683594 102.972656 246.683594 100.304688 C 246.683594 97.628906 246.140625 95.605469 245.050781 94.234375 C 243.964844 92.855469 242.386719 92.167969 240.324219 92.167969 C 238.269531 92.167969 236.699219 92.855469 235.617188 94.234375 C 234.535156 95.605469 233.996094 97.628906 233.996094 100.304688 C 233.996094 102.988281 234.535156 105.027344 235.617188 106.425781 C 236.699219 107.832031 238.269531 108.535156 240.324219 108.535156 Z M 255 110.632812 C 254.210938 110.632812 253.816406 110.417969 253.816406 109.992188 L 253.816406 91.019531 C 253.816406 90.710938 253.886719 90.492188 254.03125 90.351562 C 254.175781 90.21875 254.398438 90.148438 254.703125 90.148438 L 259.605469 90.148438 C 261.933594 90.148438 263.683594 90.558594 264.859375 91.382812 C 266.035156 92.203125 266.625 93.507812 266.625 95.304688 C 266.625 96.519531 266.332031 97.542969 265.742188 98.371094 C 265.160156 99.199219 264.339844 99.820312 263.277344 100.238281 L 263.277344 100.351562 C 263.847656 100.546875 264.3125 100.929688 264.675781 101.496094 C 265.042969 102.054688 265.449219 102.890625 265.898438 103.996094 L 268.183594 109.765625 C 268.234375 109.960938 268.261719 110.097656 268.261719 110.175781 C 268.261719 110.480469 267.851562 110.632812 267.035156 110.632812 L 266.738281 110.632812 C 266.441406 110.632812 266.1875 110.59375 265.972656 110.511719 C 265.761719 110.429688 265.628906 110.320312 265.578125 110.175781 L 263.359375 104.441406 C 263.074219 103.699219 262.738281 103.117188 262.359375 102.699219 C 261.980469 102.28125 261.523438 101.992188 260.996094 101.832031 C 260.472656 101.664062 259.8125 101.582031 259.015625 101.582031 L 256.386719 101.582031 L 256.386719 109.992188 C 256.386719 110.417969 256 110.632812 255.226562 110.632812 Z M 256.386719 99.367188 L 260.230469 99.367188 C 260.914062 99.367188 261.546875 99.203125 262.125 98.871094 C 262.695312 98.542969 263.148438 98.101562 263.480469 97.550781 C 263.816406 96.996094 263.984375 96.40625 263.984375 95.78125 C 263.984375 94.632812 263.632812 93.777344 262.929688 93.210938 C 262.230469 92.644531 261.265625 92.363281 260.027344 92.363281 L 256.386719 92.363281 Z M 279.445312 110.746094 C 276.511719 110.746094 274.28125 109.902344 272.753906 108.210938 C 271.222656 106.519531 270.457031 103.960938 270.457031 100.53125 C 270.457031 93.480469 273.601562 89.953125 279.886719 89.953125 C 280.804688 89.953125 281.695312 90.046875 282.5625 90.238281 C 283.421875 90.429688 284.121094 90.671875 284.65625 90.957031 C 285.195312 91.238281 285.460938 91.511719 285.460938 91.777344 C 285.460938 91.941406 285.40625 92.15625 285.289062 92.429688 C 285.171875 92.703125 285.039062 92.945312 284.886719 93.15625 C 284.734375 93.363281 284.597656 93.46875 284.476562 93.46875 C 284.421875 93.46875 284.269531 93.394531 284.019531 93.25 C 283.449219 92.945312 282.855469 92.691406 282.230469 92.484375 C 281.609375 92.273438 280.847656 92.167969 279.949219 92.167969 C 277.480469 92.167969 275.722656 92.851562 274.667969 94.214844 C 273.621094 95.578125 273.097656 97.597656 273.097656 100.269531 C 273.097656 102.785156 273.585938 104.792969 274.5625 106.292969 C 275.542969 107.785156 277.234375 108.535156 279.640625 108.535156 C 280.375 108.535156 281.082031 108.496094 281.761719 108.425781 C 282.445312 108.355469 282.992188 108.265625 283.394531 108.15625 L 283.394531 102.253906 L 279.980469 102.253906 C 279.777344 102.253906 279.625 102.1875 279.53125 102.054688 C 279.4375 101.914062 279.390625 101.691406 279.390625 101.386719 L 279.390625 100.910156 C 279.390625 100.605469 279.4375 100.382812 279.53125 100.242188 C 279.625 100.109375 279.777344 100.042969 279.980469 100.042969 L 285.085938 100.042969 C 285.390625 100.042969 285.613281 100.109375 285.757812 100.242188 C 285.898438 100.382812 285.964844 100.605469 285.964844 100.910156 L 285.964844 108.648438 C 285.964844 109.402344 285.355469 109.941406 284.132812 110.261719 C 282.910156 110.585938 281.347656 110.746094 279.445312 110.746094 Z M 289.984375 110.632812 C 289.546875 110.632812 289.234375 110.59375 289.035156 110.511719 C 288.839844 110.429688 288.738281 110.308594 288.738281 110.140625 C 288.738281 110.066406 288.765625 109.933594 288.820312 109.746094 L 295.726562 90.539062 C 295.832031 90.226562 296.21875 90.070312 296.886719 90.070312 L 297.738281 90.070312 C 298.40625 90.070312 298.792969 90.226562 298.902344 90.539062 L 305.804688 109.765625 C 305.859375 109.886719 305.886719 110.011719 305.886719 110.140625 C 305.886719 110.46875 305.476562 110.632812 304.65625 110.632812 L 304.414062 110.632812 C 303.734375 110.632812 303.339844 110.480469 303.234375 110.175781 L 301.527344 105.378906 L 292.972656 105.378906 L 291.300781 110.175781 C 291.199219 110.480469 290.8125 110.632812 290.128906 110.632812 Z M 293.769531 103.15625 L 300.742188 103.15625 L 297.691406 94.46875 C 297.601562 94.226562 297.53125 93.953125 297.476562 93.648438 C 297.425781 93.34375 297.375 93.046875 297.328125 92.761719 L 297.261719 92.761719 C 297.132812 93.496094 296.984375 94.066406 296.820312 94.46875 Z M 310.050781 110.632812 C 309.636719 110.632812 309.339844 110.582031 309.152344 110.476562 C 308.96875 110.375 308.875 110.214844 308.875 109.992188 L 308.875 90.722656 C 308.875 90.285156 309.265625 90.070312 310.050781 90.070312 L 310.660156 90.070312 C 310.964844 90.070312 311.207031 90.113281 311.386719 90.195312 C 311.570312 90.285156 311.730469 90.429688 311.871094 90.628906 L 321.1875 104.703125 L 322.050781 106.347656 L 322.050781 90.722656 C 322.050781 90.285156 322.433594 90.070312 323.199219 90.070312 L 323.4375 90.070312 C 324.195312 90.070312 324.578125 90.285156 324.578125 90.722656 L 324.578125 109.992188 C 324.578125 110.214844 324.484375 110.375 324.300781 110.476562 C 324.113281 110.582031 323.824219 110.632812 323.4375 110.632812 L 322.84375 110.632812 C 322.570312 110.632812 322.351562 110.601562 322.1875 110.539062 C 322.019531 110.472656 321.894531 110.367188 321.808594 110.222656 L 312.199219 95.699219 L 311.414062 94.1875 L 311.414062 109.992188 C 311.414062 110.417969 311.027344 110.632812 310.25 110.632812 Z M 331.207031 110.632812 C 330.417969 110.632812 330.023438 110.417969 330.023438 109.992188 L 330.023438 90.722656 C 330.023438 90.285156 330.417969 90.070312 331.207031 90.070312 L 331.433594 90.070312 C 332.210938 90.070312 332.597656 90.285156 332.597656 90.722656 L 332.597656 109.992188 C 332.597656 110.417969 332.210938 110.632812 331.433594 110.632812 Z M 337.25 110.585938 C 337.097656 110.585938 336.945312 110.402344 336.789062 110.035156 C 336.625 109.667969 336.546875 109.335938 336.546875 109.042969 C 336.546875 108.886719 336.574219 108.765625 336.625 108.679688 L 348.582031 92.363281 L 338.089844 92.363281 C 337.878906 92.363281 337.730469 92.285156 337.640625 92.128906 C 337.546875 91.972656 337.5 91.71875 337.5 91.367188 L 337.5 91.132812 C 337.5 90.78125 337.546875 90.53125 337.640625 90.378906 C 337.730469 90.226562 337.878906 90.148438 338.089844 90.148438 L 351.433594 90.148438 C 351.503906 90.148438 351.585938 90.238281 351.691406 90.414062 C 351.792969 90.585938 351.882812 90.796875 351.960938 91.039062 C 352.035156 91.277344 352.074219 91.492188 352.074219 91.691406 C 352.074219 91.835938 352.046875 91.949219 351.992188 92.039062 L 340.039062 108.363281 L 351.433594 108.363281 C 351.640625 108.363281 351.792969 108.445312 351.886719 108.601562 C 351.980469 108.753906 352.027344 109.003906 352.027344 109.355469 L 352.027344 109.582031 C 352.027344 109.933594 351.980469 110.1875 351.886719 110.351562 C 351.792969 110.507812 351.640625 110.585938 351.433594 110.585938 Z M 357.089844 110.585938 C 356.785156 110.585938 356.5625 110.515625 356.417969 110.371094 C 356.273438 110.230469 356.203125 110.015625 356.203125 109.71875 L 356.203125 91.019531 C 356.203125 90.710938 356.273438 90.492188 356.417969 90.351562 C 356.5625 90.21875 356.785156 90.148438 357.089844 90.148438 L 367.257812 90.148438 C 367.464844 90.148438 367.613281 90.214844 367.707031 90.34375 C 367.800781 90.476562 367.847656 90.699219 367.847656 91.019531 L 367.847656 91.496094 C 367.847656 91.792969 367.800781 92.011719 367.707031 92.15625 C 367.613281 92.292969 367.464844 92.363281 367.257812 92.363281 L 358.777344 92.363281 L 358.777344 99.019531 L 366.386719 99.019531 C 366.597656 99.019531 366.746094 99.089844 366.835938 99.234375 C 366.929688 99.378906 366.976562 99.601562 366.976562 99.90625 L 366.976562 100.351562 C 366.976562 100.65625 366.929688 100.878906 366.835938 101.015625 C 366.746094 101.152344 366.597656 101.21875 366.386719 101.21875 L 358.777344 101.21875 L 358.777344 108.363281 L 367.292969 108.363281 C 367.496094 108.363281 367.648438 108.433594 367.742188 108.574219 C 367.832031 108.707031 367.875 108.929688 367.875 109.238281 L 367.875 109.71875 C 367.875 110.015625 367.832031 110.230469 367.742188 110.371094 C 367.648438 110.515625 367.496094 110.585938 367.292969 110.585938 Z M 373.007812 110.585938 C 372.703125 110.585938 372.480469 110.515625 372.335938 110.371094 C 372.195312 110.230469 372.128906 110.015625 372.128906 109.71875 L 372.128906 91.019531 C 372.128906 90.710938 372.195312 90.492188 372.335938 90.351562 C 372.480469 90.21875 372.703125 90.148438 373.007812 90.148438 L 378.898438 90.148438 C 381.628906 90.148438 383.8125 90.960938 385.453125 92.578125 C 387.09375 94.203125 387.917969 96.792969 387.917969 100.351562 C 387.917969 103.929688 387.09375 106.53125 385.453125 108.15625 C 383.8125 109.777344 381.628906 110.585938 378.898438 110.585938 Z M 374.699219 108.363281 L 378.703125 108.363281 C 380.667969 108.363281 382.253906 107.722656 383.457031 106.441406 C 384.65625 105.152344 385.257812 103.125 385.257812 100.351562 C 385.257812 98.488281 384.972656 96.964844 384.40625 95.773438 C 383.835938 94.585938 383.058594 93.71875 382.074219 93.179688 C 381.09375 92.636719 379.96875 92.363281 378.703125 92.363281 L 374.699219 92.363281 Z M 374.699219 108.363281 "/>
</g>
<g clip-path="url(#clip3)" clip-rule="nonzero">
<path style=" stroke:none;fill-rule:nonzero;fill:rgb(100%,100%,100%);fill-opacity:1;" d="M 498.898438 26.160156 L 474.230469 1.449219 C 473.304688 0.519531 472.050781 0 470.742188 0 L 406.613281 0 C 403.890625 0 401.679688 2.214844 401.679688 4.941406 L 401.679688 123.566406 C 401.679688 126.296875 403.890625 128.511719 406.613281 128.511719 L 495.410156 128.511719 C 498.132812 128.511719 500.34375 126.296875 500.34375 123.566406 L 500.34375 29.65625 C 500.34375 28.347656 499.824219 27.089844 498.898438 26.160156 Z M 475.675781 16.875 L 483.5 24.714844 L 475.675781 24.714844 Z M 411.546875 118.625 L 411.546875 9.886719 L 465.8125 9.886719 L 465.8125 29.65625 C 465.8125 32.382812 468.019531 34.597656 470.742188 34.597656 L 490.476562 34.597656 L 490.476562 118.625 Z M 411.546875 118.625 "/>
</g>
<path style=" stroke:none;fill-rule:nonzero;fill:rgb(100%,100%,100%);fill-opacity:1;" d="M 431.277344 19.769531 L 426.34375 19.769531 C 423.621094 19.769531 421.410156 21.984375 421.410156 24.714844 C 421.410156 27.441406 423.621094 29.65625 426.34375 29.65625 L 431.277344 29.65625 C 434 29.65625 436.210938 27.441406 436.210938 24.714844 C 436.210938 21.984375 434 19.769531 431.277344 19.769531 Z M 431.277344 19.769531 "/>
<path style=" stroke:none;fill-rule:nonzero;fill:rgb(100%,100%,100%);fill-opacity:1;" d="M 446.078125 29.65625 L 455.945312 29.65625 C 458.667969 29.65625 460.878906 27.441406 460.878906 24.714844 C 460.878906 21.984375 458.667969 19.769531 455.945312 19.769531 L 446.078125 19.769531 C 443.355469 19.769531 441.144531 21.984375 441.144531 24.714844 C 441.144531 27.441406 443.355469 29.65625 446.078125 29.65625 Z M 446.078125 29.65625 "/>
<path style=" stroke:none;fill-rule:nonzero;fill:rgb(100%,100%,100%);fill-opacity:1;" d="M 431.277344 39.542969 L 426.34375 39.542969 C 423.621094 39.542969 421.410156 41.753906 421.410156 44.484375 C 421.410156 47.210938 423.621094 49.425781 426.34375 49.425781 L 431.277344 49.425781 C 434 49.425781 436.210938 47.210938 436.210938 44.484375 C 436.210938 41.753906 434 39.542969 431.277344 39.542969 Z M 431.277344 39.542969 "/>
<path style=" stroke:none;fill-rule:nonzero;fill:rgb(100%,100%,100%);fill-opacity:1;" d="M 475.675781 39.542969 L 446.078125 39.542969 C 443.355469 39.542969 441.144531 41.753906 441.144531 44.484375 C 441.144531 47.210938 443.355469 49.425781 446.078125 49.425781 L 475.675781 49.425781 C 478.398438 49.425781 480.609375 47.210938 480.609375 44.484375 C 480.609375 41.753906 478.398438 39.542969 475.675781 39.542969 Z M 475.675781 39.542969 "/>
<path style=" stroke:none;fill-rule:nonzero;fill:rgb(100%,100%,100%);fill-opacity:1;" d="M 431.277344 59.3125 L 426.34375 59.3125 C 423.621094 59.3125 421.410156 61.527344 421.410156 64.253906 C 421.410156 66.984375 423.621094 69.199219 426.34375 69.199219 L 431.277344 69.199219 C 434 69.199219 436.210938 66.984375 436.210938 64.253906 C 436.210938 61.527344 434 59.3125 431.277344 59.3125 Z M 431.277344 59.3125 "/>
<path style=" stroke:none;fill-rule:nonzero;fill:rgb(100%,100%,100%);fill-opacity:1;" d="M 475.675781 59.3125 L 446.078125 59.3125 C 443.355469 59.3125 441.144531 61.527344 441.144531 64.253906 C 441.144531 66.984375 443.355469 69.199219 446.078125 69.199219 L 475.675781 69.199219 C 478.398438 69.199219 480.609375 66.984375 480.609375 64.253906 C 480.609375 61.527344 478.398438 59.3125 475.675781 59.3125 Z M 475.675781 59.3125 "/>
<path style=" stroke:none;fill-rule:nonzero;fill:rgb(100%,100%,100%);fill-opacity:1;" d="M 431.277344 79.082031 L 426.34375 79.082031 C 423.621094 79.082031 421.410156 81.296875 421.410156 84.027344 C 421.410156 86.753906 423.621094 88.96875 426.34375 88.96875 L 431.277344 88.96875 C 434 88.96875 436.210938 86.753906 436.210938 84.027344 C 436.210938 81.296875 434 79.082031 431.277344 79.082031 Z M 431.277344 79.082031 "/>
<path style=" stroke:none;fill-rule:nonzero;fill:rgb(100%,100%,100%);fill-opacity:1;" d="M 475.675781 79.082031 L 446.078125 79.082031 C 443.355469 79.082031 441.144531 81.296875 441.144531 84.027344 C 441.144531 86.753906 443.355469 88.96875 446.078125 88.96875 L 475.675781 88.96875 C 478.398438 88.96875 480.609375 86.753906 480.609375 84.027344 C 480.609375 81.296875 478.398438 79.082031 475.675781 79.082031 Z M 475.675781 79.082031 "/>
<path style=" stroke:none;fill-rule:nonzero;fill:rgb(100%,100%,100%);fill-opacity:1;" d="M 431.277344 98.855469 L 426.34375 98.855469 C 423.621094 98.855469 421.410156 101.066406 421.410156 103.796875 C 421.410156 106.523438 423.621094 108.738281 426.34375 108.738281 L 431.277344 108.738281 C 434 108.738281 436.210938 106.523438 436.210938 103.796875 C 436.210938 101.066406 434 98.855469 431.277344 98.855469 Z M 431.277344 98.855469 "/>
<path style=" stroke:none;fill-rule:nonzero;fill:rgb(100%,100%,100%);fill-opacity:1;" d="M 475.675781 98.855469 L 446.078125 98.855469 C 443.355469 98.855469 441.144531 101.066406 441.144531 103.796875 C 441.144531 106.523438 443.355469 108.738281 446.078125 108.738281 L 475.675781 108.738281 C 478.398438 108.738281 480.609375 106.523438 480.609375 103.796875 C 480.609375 101.066406 478.398438 98.855469 475.675781 98.855469 Z M 475.675781 98.855469 "/>
</g>
</svg>
